<svg xmlns="http://www.w3.org/2000/svg" viewBox="0 0 1373.96 260.23"><defs><style>.cls-1{fill:#fff;}</style></defs><g id="图层_2" data-name="图层 2"><g id="图层_1-2" data-name="图层 1"><path class="cls-1" d="M622.21,84.48V32.73h-5.44c-21.82,0-43.64.07-65.46,0-6.72,0-11.38-3.31-13.16-8.74s-.35-11.5,4.5-14.67a19,19,0,0,1,9.75-3C598.7,6.11,645,6,691.31,6.3c23.08.15,39.9,15.66,41.42,37.07.61,8.57-3.93,14.83-11.22,15.47-8.56.75-14-3.9-15.1-12.82-.88-7.37-5.28-12.19-12.13-13.19a30.57,30.57,0,0,0-4.49-.23c-13.28,0-26.57,0-40.19,0V53.75h5.19c11.33,0,22.66-.13,34-.06,9.67.06,15.18,5.07,15,13.41C703.68,75.28,698.22,80,688.74,80c-11.16,0-22.32,0-33.48-.06h-5.65v8.75c37.91,4.63,75.57,9,112.17-6.76,22.05-9.52,40.44-23.56,54.56-43.06,1.07-1.48,2-3,3-4.59.15-.23,0-.63,0-1.51H810.6c-14.16,0-28.32.09-42.48-.09-6.57-.08-11.09-3.36-12.81-8.53s-.24-11.77,4.36-14.77a19,19,0,0,1,9.72-3q78.45-.3,156.9-.15c8.71,0,14.15,5.46,14,13.51s-5.69,13.11-14.42,13.12c-23.49,0-47,.06-70.46-.09-3.58,0-5.5.94-7.26,4.3-11.73,22.37-28.24,40.57-49,55-1.74,1.21-3.61,3.72-3.63,5.65-.26,27.46-.21,54.93-.23,82.39,0,.63.13,1.26.27,2.61,4.15-4.5,7.78-8.67,11.65-12.6,18.1-18.4,39.92-30.23,64.95-36.15,9.25-2.19,15.67,1.73,17.51,10.11,1.7,7.79-2.86,13.73-11.92,15.82-33.62,7.76-57.06,28-72,58.68a26.09,26.09,0,0,0-1,3.19H813c21.49,0,43,.08,64.46,0,17.78-.11,29.31-11.67,29.43-29.52q.24-36.71.19-73.41c0-17.56-12.35-29.94-29.86-30-17.83,0-35.65,0-53.47.08h-4C826,82,832.48,76.22,837.53,69.38c4.2-5.7,8.88-7.35,15.57-6.95,11.77.71,23.81-.62,35.35,1.26,26.14,4.25,44.36,25.91,44.76,52.31q.62,39.94-.09,79.9c-.56,29.12-23.21,51.47-53.65,52.19-33.79.81-67.62.39-101.43.39-6.57,0-9.36-3.34-9.36-10.77q-.06-61.92,0-123.84v-6c-6.34,2-12.21,4.07-18.19,5.69-20.13,5.47-40.64,6.68-61.4,5.32C660.6,117,632.2,114.7,604.94,105.7c-10.22-3.37-20-8.17-30.56-12.59-1.19,1.32-2.94,3.25-4.68,5.21-12,13.6-27.53,20.25-45.27,21.48-32.54,2.27-64.89-.57-97.15-4.6-18.21-2.28-36.23-5.53-53.3-12.52-7.19-3-14.09-6.61-21.45-10.1-7.91,11.6-17.38,21.91-29.15,29.57a216.48,216.48,0,0,1-28,15.15c-8,3.66-15,.56-17.81-6.51-3-7.65.2-14.5,8.6-17.87,19.91-8,36.6-20,46.88-39.18,3.68-6.84,5.49-14.91,7-22.64,1.69-8.73,6-13.56,13.89-13.13s12.92,6.14,12.54,14.92c-.18,4.12-1.33,8.19-1.76,12.31-.15,1.4,0,3.47.94,4.24,5.19,4.48,26.19,12.48,33.9,13.18V32.72h-5.4q-32,0-64,0c-9.4,0-15-4.83-15-12.87S321,6.17,330.26,6.16q70,0,139.91.11c21.89.08,39.55,16.65,40.5,37.51.37,8.27-4.08,14.24-11.24,15.06-8.14.93-13.75-3.64-15.1-12.28-1.53-9.75-6.22-13.87-16.18-13.93-13.62-.08-27.23,0-41.19,0V53.73h5.35c11.83,0,23.66-.08,35.48,0,8.53,0,13.91,5.08,14,12.89.09,8-5.34,13.23-14.16,13.29-11.82.07-23.65,0-35.48,0H427v9c12.9,1.26,25.74,3,38.63,3.67,17.12.87,34.28,1.35,51.42,1.18,27.34-.26,43.45-15.92,45.48-43.33.55-7.44,6.12-12.58,13.49-12.44a12.71,12.71,0,0,1,12.76,13.17,70.76,70.76,0,0,1-1.84,13.8c-.59,2.6-.28,4.08,2.16,5.14C599.68,74.63,610.27,79.27,622.21,84.48Z"/><path class="cls-1" d="M1037.17,221.9V168.58H1030c-16.49,0-33,0-49.47,0-8.43,0-14-5.06-14.27-12.73-.25-8.07,4.94-13.42,13.86-13.53,17-.23,34-.14,51-.18h6.13V114.77h-5.94q-28,0-56,0c-5.41,0-9.85-2-12.39-6.91-2.41-4.64-1.93-9.36.77-13.8,3-4.92,7.81-5.67,13-5.66,20.32,0,40.64,0,61,0q45,0,89.94,0c8.88,0,14.5,5,14.55,12.8,0,8.1-5.69,13.61-14.49,13.63-19.16,0-38.31,0-57.46,0-1.8,0-3.6,0-5.75,0v27.13c2.07.11,4.17.31,6.26.31,17.15,0,34.31,0,51.46.06,5.54,0,10.14,1.83,12.55,7.29,4.19,9.47-1.91,18.91-12.57,19-17.49.17-35,0-52.46,0h-5.26v53c1.79.11,3.56.3,5.32.3q37,.07,74,.08c17.6,0,26.24-8.43,26.46-25.91.22-17.8.23-35.61.36-53.42.06-8.05,5.2-13.54,12.77-13.75,7.25-.19,13.46,4.91,13.42,12.55-.12,22,.43,44-1.73,65.82-2.4,24.26-23.55,41.18-48.16,41.2q-81,.08-161.9,0c-5,0-10,.07-15,.07-9.32,0-15.08-4.82-15.28-12.79s5.53-13.57,15-13.66c20.49-.22,41-.19,61.46-.25C1032.94,221.89,1034.76,221.9,1037.17,221.9Z"/><path class="cls-1" d="M649.54,206.39v12c3.93,0,7.69.13,11.43,0,13.14-.54,26.27-1.23,39.41-1.76,2.85-.11,4.88-.05,5.28-4,.5-5.18,5.55-9.2,11-10.07,5.65-.89,10.3,1,12.91,6.31,4.18,8.48,8.16,17.1,11.67,25.88,2.48,6.21-.87,13.14-6.81,15.85-6.55,3-13.69,1.28-17.05-4.7-1.63-2.89-3.46-3.35-6.37-3.23Q651.4,245,591.75,247.34c-13.8.54-27.61,1-41.42,1.44-5.33.15-9.27-2.4-11.59-7.19a13.11,13.11,0,0,1,1-13.74c2.79-4.17,7-5.17,11.73-5.35,22.13-.84,44.25-1.78,66.37-2.69,1.32-.06,2.63-.19,4.34-.32v-13H617q-27-.06-53.94-.13c-8.32,0-10.77-2.49-10.78-10.68q0-29.7,0-59.4c0-9.18,1.94-11.19,11.17-11.17q27.47.06,54.94.34c2.63,0,4.38-.41,6-3,5-7.88,17.55-7.72,23.18-.27a8.11,8.11,0,0,0,5.37,2.94c10.64.46,21.31.31,32,.77,18.75.81,33.51,13.24,37.34,31.09,4.07,18.92-4.39,37.84-21.44,45.44-6,2.68-13.13,3.43-19.82,3.83C670.7,206.84,660.38,206.39,649.54,206.39ZM578.86,179.9h43.3V152.17h-43.3Zm70.78.17c11.24,0,21.88.14,32.53,0,8.89-.15,14.43-5.62,14.41-13.79s-6-14.25-14.64-14.4c-9.49-.16-19,0-28.47,0a32.35,32.35,0,0,0-3.83.44Z"/><path class="cls-1" d="M399.6,219.41V206.69c-1.61-.08-3.36-.24-5.11-.24q-27-.07-53.95-.12c-8.68,0-11-2.33-11-10.9q0-30.21,0-60.41c0-7.5,2.33-9.94,9.86-9.93q28,.06,55.94.34c3,0,4.94-.38,6.83-3.37,4.81-7.6,17.24-7.11,22.85.22a8.13,8.13,0,0,0,5.38,2.94c10,.42,20,.35,30,.57,18.35.39,32.59,10.57,37.93,27a41.55,41.55,0,0,1-13.91,46.14c-7,5.41-15.2,7.3-23.88,7.36s-17.32,0-26,0c-2.45,0-4.91.22-7.59.35v12l54.4-2.4a38.11,38.11,0,0,1,1.06-4.21c2-5.4,5.79-8.87,11.65-9.6,5.61-.69,9.88,1.52,12.55,7,3.85,7.92,7.5,15.94,10.89,24.07a12.92,12.92,0,0,1-6.28,16.92c-6.45,3.1-13.74,1.21-17.42-4.91-1.39-2.32-2.77-3.15-5.48-3q-56.9,2.47-113.78,4.72c-15,.61-29.95,1.25-44.93,1.74-8.6.28-14.61-5-14.84-12.75-.25-8.14,5.23-13.34,14.31-13.7q33.44-1.35,66.88-2.78C397.1,219.71,398.22,219.55,399.6,219.41ZM427,180c11.06,0,21.83.11,32.59,0,8.62-.12,14.22-5.49,14.32-13.34.11-8.61-5.78-14.71-14.67-14.84-9.83-.14-19.65,0-29.47,0a15,15,0,0,0-2.77.56Zm-27.4-28H356.44v27.76H399.6Z"/><path class="cls-1" d="M1268.21,163.38q0-37.2,0-74.4c0-8.27,2.47-10.82,10.66-10.84,15.16,0,30.32-.12,45.47.14,28.47.49,47.72,20.07,47.83,48.49q.13,35.94,0,71.9c-.1,29.77-20.64,50-50.52,49.87-14,0-28,.05-42,.05-9.66,0-11.52-2-11.51-11.82q0-36.69,0-73.39Zm27,58.69c10.09,0,19.57.25,29-.07,12.56-.42,21-8,21.34-20.53q.86-38.17.12-76.38c-.23-12.68-9.07-20.34-21.77-20.57-5.16-.09-10.33,0-15.49,0-4.42,0-8.83,0-13.09,0v25.94c10.69,0,21-.18,31.28.06A12.31,12.31,0,0,1,1339,143a13.1,13.1,0,0,1-12.35,13.7c-3.66.22-7.33.1-11,.1h-20.35V171c10.34,0,20.3-.05,30.27,0,7.92,0,13.16,4.93,13.52,12.39s-4.68,13.32-12.51,14c-2.32.21-4.66.07-7,.07-8.09,0-16.17,0-24.4,0Z"/><path class="cls-1" d="M1066.2,24.85c13.69,0,26.66-.25,39.62.07,13.85.33,25.58,5.47,34.11,16.8,6.86,9.11,9,19.54,8,30.65-.51,6.06-5.67,10.35-12,10.6-7.21.28-12.64-3.35-13.88-9.56a61,61,0,0,1-.61-7.44c-.56-7.8-5.11-12.92-12.86-14.28a35,35,0,0,0-6-.52c-34.3,0-68.62.28-102.92-.15-12.19-.16-18.58,5.71-17.75,17.59.62,8.85-3.92,13.76-11.66,14.45-8.89.78-14.77-4.39-14.84-13.34-.1-11.48,0-23,.06-34.45.07-7.49,3.09-10.46,10.76-10.49,22.32-.07,44.64,0,66.95-.05h6.18c0-3.75,0-7.17,0-10.58.1-8.61,5.28-14,13.45-14.15,8-.1,13.16,5.39,13.26,14.15C1066.23,17.46,1066.2,20.77,1066.2,24.85Z"/><path class="cls-1" d="M1202.16,96.7c0-4.33-.12-7.8,0-11.26.3-7.63,5.57-13,12.83-13.27s12.88,4.59,13.63,12.37c.36,3.77.06,7.6.06,12.07,7.32,0,14.26-.11,21.2,0,6.13.13,10.76,3.79,12.17,9.23,1.64,6.31-.33,12.28-5.56,15.24a18.22,18.22,0,0,1-7.08,1.83c-3.31.32-6.66.14-10,.16s-6.6,0-10.7,0c0,3.25,0,6,0,8.75q.07,50.65.15,101.3c0,8.31-3.27,13.67-9.28,15.39-9.16,2.63-17.3-3.3-17.38-13-.14-16.63,0-33.27,0-49.9q0-27.7,0-55.4V123c-7.33,0-14.27.21-21.19-.06-8.4-.33-13.26-5.69-13-13.83A12.44,12.44,0,0,1,1180,96.76C1187.08,96.49,1194.22,96.7,1202.16,96.7Z"/><path class="cls-1" d="M1214.17,17c7.82,0,15.27,0,22.73,0,7.16,0,14.33-.1,21.48.08,7.4.2,12.42,5.38,12.67,12.7s-4.41,12.94-11.72,13.64c-3.61.34-7.29.06-11.76.06,1.51,3.24,2.76,5.68,3.78,8.2,3,7.35.4,15-6,17.92-7.07,3.26-14.24.71-18.13-6.58-2.89-5.43-5.83-10.85-8.37-16.45-2.09-4.62-6-2.36-9.1-2.89-2.61-.43-3.93.78-5.42,3.08a195.32,195.32,0,0,1-14.53,20.17c-4,4.8-11.44,5.33-16.52,2.4a12.62,12.62,0,0,1-6-14.55,19.68,19.68,0,0,1,4.34-7.1c9.06-10.06,15-21.4,16.19-35.13.69-8.21,6.21-12.83,14-12.48,7.3.32,12.14,5.62,12.38,13.55C1214.2,14.58,1214.17,15.54,1214.17,17Z"/><path class="cls-1" d="M1351.16,43.76c1.66,3.52,3.06,6.15,4.15,8.9,2.77,7-.15,14.39-6.62,17.19a13.29,13.29,0,0,1-17.4-6.27c-2.79-5.29-5.62-10.56-8.11-16-1.36-3-3.07-4.35-6.44-4-3.66.36-7-.43-9.41,4.22a95.4,95.4,0,0,1-12.64,17.8c-5.91,6.85-14.46,7.24-20.26,1.74s-5.38-13.07.78-19.86c8.72-9.61,14.37-20.62,15.56-33.76.83-9.13,6-14.07,13.86-13.69s12.44,5.66,12.65,14.87c0,.49.09,1,.21,2.14h5.26c12.14,0,24.29-.07,36.43-.06,8.94,0,14.71,5.24,14.78,13.31s-5.79,13.39-14.66,13.48C1356.82,43.78,1354.35,43.76,1351.16,43.76Z"/><path class="cls-1" d="M1234.58,189.19c0-15.13-.09-30.27,0-45.41.07-8.3,3.13-12.53,9.8-14.28,8.88-2.33,16.66,3.7,16.74,13.23.12,15.47,0,30.94.06,46.42s.12,31.27,0,46.91c0,6.52-4.2,11.45-10,12.63-6.72,1.35-12.42-1.06-15-6.84a18.35,18.35,0,0,1-1.4-7.24c-.12-15.14-.06-30.28-.06-45.42Z"/><path class="cls-1" d="M1111.16,214.63c-8.64-.12-14-3.91-16.73-12.13a25.54,25.54,0,0,1,.2-18c2.72-6.76,7.83-9.62,15-8.69,11,1.41,20.84,14.6,19.09,25.44C1127.32,209.75,1120.75,214.77,1111.16,214.63Z"/><path class="cls-1" d="M29.88,182.29c-6,4.85-13.95,4.26-19.87-1.5-5.77-5.61-8.58-12.74-9.63-20.57A35.58,35.58,0,0,1,7,133.49c2-2.67,4.82-4.73,7.33-7a7.2,7.2,0,0,1,1-.74,1.25,1.25,0,0,0,.14-2c-.94-.9-.42-2.16,0-3.36,2.6-7,7.33-11.25,14.75-12.34a1.3,1.3,0,0,0,1.1-1.34,14.75,14.75,0,0,1,5.12-11.92A15.93,15.93,0,0,1,49,90.44a1.3,1.3,0,0,0,1.32-.7c2-4.4,5.92-5.59,9.75-2.76a7,7,0,0,0,.67-1.26C63,77.34,74.24,70.3,86,75.48a3,3,0,0,1,1.2,1.07c.63.9,1.25.64,1.78-.29,5-8.75,22.61-10.4,30.62.64A10.15,10.15,0,0,0,121,78.22a5.61,5.61,0,0,1,.82-1.51,4.89,4.89,0,0,1,1.78-1.12,15.89,15.89,0,0,1,17,5,1.28,1.28,0,0,1,.09,1.52l-1.15,1.8c1.06-.18,1.65-.25,2.23-.39a13.71,13.71,0,0,1,15.47,7.67,4.4,4.4,0,0,1,.48,3.49,1.31,1.31,0,0,0,1.12,1.85h.34c10.48.07,20.44,8.92,21.49,19.29a13.26,13.26,0,0,1-.54,4,1.31,1.31,0,0,0,.77,1.47c8.71,3.88,13.22,10,12.65,17.68a1.29,1.29,0,0,1-.85,1.1h0a1.31,1.31,0,0,0-.5,2.12,88.27,88.27,0,0,1,7,7.94c4.12,5.72,6.62,12.07,5.51,19.38a2.16,2.16,0,0,0,.62,1.5c4.89,5.13,7.35,11,6.18,18.23a4.47,4.47,0,0,0,.89,2.37c3.45,6.11,4.59,12.57,2.18,19.24a15,15,0,0,0-.92,6.32c.42,7.41-4.08,16.49-11.48,18.19a2.22,2.22,0,0,0-1.26,1.24c-5,12.13-21.65,15.6-30.71,6.19-1.65-1.71-2.12-4.5-3.56-6.49s-3.84-3.14-4.92-5.15c-2.34-4.38-2.71-9,.16-13.52a1.75,1.75,0,0,0,0-1.53c-2.49-4.13-2.4-8.54-1.24-12.94.83-3.15,2.08-6.18,3.16-9.26,2.14-6.15,3-12.39,1.54-18.83a14.61,14.61,0,0,0-.45-1.44c-.26.17-.45.24-.45.31A63.88,63.88,0,0,1,158,196.49c-2.53,5.32-3.91,10.87-2.77,16.85a3.48,3.48,0,0,1-1,2.29c-6.35,7.79-14.76,12.22-24.3,14.78a93.83,93.83,0,0,1-10.78,2c-23.21,2.22-45.26-1.64-65.77-12.94-9.23-5.09-16.82-12-21.09-21.88-2-4.61-3.21-9.4-2.14-14.49C30.15,182.93,30,182.71,29.88,182.29Zm70.49,34.14.18-.71a18.92,18.92,0,0,0-2.44-.61c-5.36-.66-9.6-5.18-9.64-10.27,0-1.52.25-2.54,2.16-2.53a12.23,12.23,0,0,0,3.18-.89,25.78,25.78,0,0,1,4.55-1.23,9.21,9.21,0,0,0,7.37-4.34c2.84-4.48,1.57-9.4-3.49-12.82a27.76,27.76,0,0,0-18.33-4.91,14,14,0,0,0-6,2,8.56,8.56,0,0,0,.29,14.54A6.93,6.93,0,0,1,79.51,196c1.42,1.57,2.9,3.1,4.23,4.74a2.9,2.9,0,0,1,.74,2.11,7.49,7.49,0,0,1-6.2,5.69c-2.47.34-5.07-.31-7.62-.47a5.61,5.61,0,0,0-1.52.33c.2.43.29,1.07.62,1.26a20.68,20.68,0,0,0,4.17,2,12,12,0,0,0,10.23-1.64,1.28,1.28,0,0,1,1.83.44C89.13,216.06,95.28,218.65,100.37,216.43Zm30.68-31.65c9.36.2,16.13-8.68,13.49-16.88-2-6.35-8.09-10.28-14.19-9.24a13.69,13.69,0,0,0-11.5,13.77,4.32,4.32,0,0,0,1.66,3.36,27.12,27.12,0,0,1,5.32,5.93C127.26,184.18,129.09,184.91,131.05,184.78Zm-48.55-29a1.43,1.43,0,0,0,.08-.58,13.9,13.9,0,0,0-11.15-12.76A13.22,13.22,0,0,0,63,167.06a4,4,0,0,0,2.64.05c4.21-1.11,8.38-2.32,12.55-3.55.64-.19,1.52-.54,1.74-1.05C80.91,160.32,81.68,158.05,82.5,155.81Z"/><path class="cls-1" d="M219.13,216.31a16.26,16.26,0,0,1,.43-3.72c2.6-7.45,1.8-14.57-1.61-21.56a9,9,0,0,1-1-4.15,23.69,23.69,0,0,0-5.23-16.14,6.24,6.24,0,0,1-1.51-4.2c.05-8.93-3.78-16.3-9.5-22.87a4.33,4.33,0,0,1-1.19-2.23c-.61-12.95-4.22-25.13-9.57-36.8-13.73-29.9-37.44-46.46-69.61-51.46A101.83,101.83,0,0,0,69.07,58.1C49.38,65.3,34,78,22.18,95.17c-.33.49-.66,1-1,1.45a6.26,6.26,0,0,1-6.8,2.06C11.85,97.8,10.67,96,10.66,93q0-17.8,0-35.63,0-25.5,0-51c0-4.69,1.58-6.26,6.29-6.26,32.36,0,64.73,0,97.09,0,20.36.06,40.29,3,59.31,10.48,38.13,15,61.79,43,71.54,82.43,8.36,33.84,5,67-9.42,98.74-3.38,7.43-8.3,14.17-12.6,21.18a28.45,28.45,0,0,1-3,3.54Z"/><path class="cls-1" d="M57.72,260.22q-20.7,0-41.4,0c-4.05,0-5.64-1.55-5.64-5.67q0-25.26,0-50.52c0-3.06,1.18-5,3.46-5.88,2.43-.91,5-.09,7,2,5.32,5.36,10.32,11.12,16.15,15.86,13.2,10.72,28.66,16.84,45.2,20.33,7.29,1.54,14.32,3.68,19.24,9.72a21.63,21.63,0,0,1,3.75,7.18c1.27,4.14-1.1,7-5.47,7-12.76,0-25.52,0-38.28,0h-4Z"/><path class="cls-1" d="M134.11,165.49a3.68,3.68,0,0,1-3.74,3.57,3.44,3.44,0,0,1-3.69-3.52,3.81,3.81,0,0,1,4-3.61A3.51,3.51,0,0,1,134.11,165.49Z"/><path class="cls-1" d="M130.83,179l6.91-2.88c.35,1.24.19,1.64-1.29,2.58C134.22,180.13,132.27,180.19,130.83,179Z"/><path class="cls-1" d="M71.12,149.07a3.61,3.61,0,0,1-3.68,3.62,3.35,3.35,0,0,1-3.56-3.4,3.64,3.64,0,0,1,3.81-3.51A3.26,3.26,0,0,1,71.12,149.07Z"/><path class="cls-1" d="M75.37,159.65c-.64.68-1.16,1.65-2,2-1.7.68-3.5,1.86-5.61.37l7-2.49Z"/></g></g></svg>